<svg xmlns="http://www.w3.org/2000/svg" width="17" height="17" fill="none"><path fill="#fff" d="M8.28 0C3.715 0 0 3.714 0 8.28c0 1.426.368 2.827 1.067 4.064L.013 16.103a.36.36 0 0 0 .433.447l3.923-.972a8.285 8.285 0 0 0 3.911.982c4.566 0 8.28-3.714 8.28-8.28C16.56 3.714 12.846 0 8.28 0Zm4.165 11.202c-.177.49-1.027.938-1.435.998-.366.053-.83.076-1.339-.083a12.471 12.471 0 0 1-1.212-.443c-2.132-.91-3.524-3.03-3.631-3.17-.106-.14-.868-1.137-.868-2.17s.549-1.541.744-1.751a.786.786 0 0 1 .567-.263c.142 0 .283.002.408.008.13.006.306-.05.478.36.177.42.602 1.453.655 1.559.053.105.089.228.018.368-.07.14-.106.227-.212.35-.107.123-.224.274-.32.368-.106.105-.216.218-.093.428.124.21.55.898 1.183 1.454.812.715 1.497.937 1.71 1.042.212.105.336.088.46-.052.123-.14.531-.614.672-.823.142-.21.284-.176.479-.106.195.07 1.24.578 1.453.683.212.105.354.158.407.245.053.087.053.508-.124.998Z"/></svg>