<svg width="42" height="42" viewBox="0 0 50 51" fill="none" xmlns="http://www.w3.org/2000/svg">
<path d="M12.4166 24.479H37.5416V26.5311H12.4166V24.479Z" fill="#CC3E30"/>
<path d="M12.4166 33.104H37.5416V35.1561H12.4166V33.104Z" fill="#CC3E30"/>
<path d="M12.4166 15.854H37.5416V17.9009H12.4166V15.854Z" fill="#CC3E30"/>
<mask id="mask0_109_32" style="mask-type:luminance" maskUnits="userSpaceOnUse" x="0" y="0" width="50" height="51">
<path d="M0 0H49.9896V51H0V0Z" fill="white"/>
</mask>
<g mask="url(#mask0_109_32)">
<path d="M41.2448 42.099C36.9323 46.4948 31.0833 48.974 24.9792 48.974C18.875 48.974 13.026 46.4948 8.70833 42.099C4.39583 37.6979 1.97396 31.7292 1.97396 25.5052C1.97396 19.2813 4.39583 13.3073 8.70833 8.90626C13.026 4.51042 18.875 2.03647 24.9792 2.03647C31.0833 2.03647 36.9323 4.51042 41.2448 8.90626C45.5625 13.3073 47.9844 19.2813 47.9844 25.5052C47.9844 31.7292 45.5625 37.6979 41.2448 42.099ZM42.6667 7.45834C37.9792 2.6823 31.6198 -0.00520177 24.9896 7.55906e-06C18.3646 0.00521556 12.0104 2.69272 7.32292 7.47397C2.63542 12.2552 0 18.7396 0 25.5C0 32.2656 2.63542 38.7448 7.32292 43.5313C12.0104 48.3125 18.3646 50.9948 24.9896 51C31.6198 51.0052 37.9792 48.3229 42.6667 43.5417C47.3542 38.7552 49.9844 32.2656 49.9844 25.5C49.9844 18.7344 47.3542 12.25 42.6667 7.45834Z" fill="#CC3E30"/>
</g>
</svg>
