<svg width="42" height="42" viewBox="0 0 51 52" fill="none" xmlns="http://www.w3.org/2000/svg">
<mask id="mask0_109_27" style="mask-type:luminance" maskUnits="userSpaceOnUse" x="0" y="0" width="51" height="52">
<path d="M0 0H51V52H0V0Z" fill="white"/>
</mask>
<g mask="url(#mask0_109_27)">
<path d="M38.25 18.2865H12.75C12.1875 18.2865 11.7292 17.8229 11.7292 17.25C11.7292 16.6771 12.1875 16.2083 12.75 16.2083H38.25C38.8073 16.2083 39.2656 16.6771 39.2656 17.25C39.2656 17.8229 38.8073 18.2865 38.25 18.2865ZM38.25 27.0417H12.75C12.1875 27.0417 11.7292 26.5729 11.7292 26C11.7292 25.4271 12.1875 24.9635 12.75 24.9635H38.25C38.8073 24.9635 39.2656 25.4271 39.2656 26C39.2656 26.5729 38.8073 27.0417 38.25 27.0417ZM38.25 35.7917H12.75C12.1875 35.7917 11.7292 35.3281 11.7292 34.7552C11.7292 34.1771 12.1875 33.7135 12.75 33.7135H38.25C38.8073 33.7135 39.2656 34.1771 39.2656 34.7552C39.2656 35.3281 38.8073 35.7917 38.25 35.7917ZM25.5 0C18.7344 0 12.25 2.73958 7.46875 7.61979C2.68229 12.4948 0 19.1042 0 26C0 32.8958 2.68229 39.5104 7.46875 44.3854C12.25 49.2604 18.7344 52 25.5 52C32.2604 52 38.7448 49.2604 43.526 44.3854C48.3073 39.5104 51 32.8958 51 26C51 19.1042 48.3073 12.4948 43.526 7.61979C38.7448 2.73958 32.2604 0 25.5 0Z" fill="#CC3E30"/>
</g>
</svg>
