<svg width="44" height="50" viewBox="0 0 44 50" fill="none" xmlns="http://www.w3.org/2000/svg">
<path d="M41.8352 40.9588C42.8094 37.4845 43.316 33.771 43.316 29.9525C43.316 13.4361 33.81 0 22.1234 0C10.434 0 0.92793 13.4396 0.92793 29.9525C0.92793 33.7744 1.42898 37.4914 2.4087 40.9588H0V49.9639H15.012L13.6992 47.4945C16.5754 45.0836 18.2465 42.4732 18.2465 42.4732C21.2696 43.7001 24.8652 38.7562 24.8652 38.7562C26.2494 37.66 25.8939 42.1703 25.8939 42.1703C25.4698 42.7347 24.8974 44.2198 24.8974 44.2198L23.1535 44.132C21.9848 44.7877 22.2339 47.9402 22.2339 47.9402C23.6909 47.9402 25.7889 45.4467 25.7889 45.4467C27.4264 44.6603 27.6014 43.7827 27.6014 43.7827V38.93C27.6364 35.9117 27.3564 35.8343 26.6804 35.7809C25.7049 35.7104 22.7658 35.7413 22.7658 35.7413C22.2689 34.7329 22.0954 30.4911 22.3781 28.7875C23.3158 23.1123 26.6804 25.0258 26.6804 25.0258C27.0709 29.7477 31.0206 29.9267 31.0206 29.9267C31.3411 33.6006 32.8848 32.0812 33.5818 31.7576C34.5895 31.2913 34.3656 30.5341 34.3656 30.5341C34.1543 28.9613 32.444 22.9144 31.8044 20.6532C31.2361 18.6364 29.7539 16.5491 28.854 15.5338C28.854 15.5338 29.0737 16.3271 28.9996 16.5422C28.784 17.1101 28.6119 16.8898 28.6119 16.8898C25.1241 13.1711 21.8155 14.2225 21.8155 14.2225C23.523 14.3533 24.1626 16.0139 24.1626 16.0139C21.8155 14.6166 21.3928 14.8919 20.2157 15.403C17.2332 16.704 14.3822 16.5869 14.3822 16.5869C15.4123 18.2923 17.1968 18.2492 17.1968 18.2492C15.8784 18.9324 15.2864 18.91 14.8469 19.077C12.7153 19.9047 12.1429 21.9197 12.1429 21.9197C13.7076 21.9197 10.9322 26.3319 10.9322 26.3319C12.8539 25.0189 13.2583 25.5231 13.2122 25.5455C11.11 26.5952 10.5067 28.5208 10.5067 28.5208C9.9861 29.8923 9.20652 31.1485 8.36257 32.2618C8.30239 31.4995 8.2646 30.7217 8.2646 29.9422C8.2646 18.3904 14.4858 8.9947 22.1318 8.9947C29.7763 8.9947 35.9989 18.3904 35.9989 29.9422C35.9989 34.714 34.9394 39.2277 32.9408 42.9928L29.2375 49.9604H43.9626V40.9537L41.8352 40.9588ZM4.98115 28.6154C4.26736 28.5741 3.73971 27.1596 3.80549 25.4646C3.86848 23.7662 4.49409 22.4274 5.21068 22.4738C5.92168 22.5151 6.45072 23.9314 6.38634 25.6264C6.32336 27.3214 5.69494 28.6653 4.98115 28.6154ZM9.99449 14.7646C9.19533 16.1017 8.08965 16.7263 7.52561 16.1516C6.96298 15.5803 7.15332 14.0264 7.95249 12.6876C8.75305 11.3505 9.85733 10.7241 10.4228 11.3006C10.9854 11.8702 10.7965 13.4241 9.99449 14.7646ZM21.9764 7.34444C20.9827 7.34444 20.1821 6.29474 20.1821 5.00069C20.1821 3.70319 20.9827 2.65522 21.9764 2.65522C22.9687 2.65522 23.7707 3.70319 23.7707 5.00069C23.7707 6.29474 22.9687 7.34444 21.9764 7.34444ZM36.7099 16.1481C36.1501 16.7229 35.0444 16.1017 34.241 14.7594C33.4433 13.4241 33.2515 11.8685 33.8142 11.2972C34.374 10.7207 35.4783 11.3436 36.283 12.6824C37.0822 14.0229 37.2754 15.5768 36.7099 16.1481ZM39.26 28.6154C38.5434 28.6619 37.915 27.3214 37.852 25.6264C37.7876 23.9331 38.3153 22.5151 39.0304 22.4738C39.7442 22.4291 40.3727 23.7662 40.4356 25.4646C40.4986 27.1631 39.9682 28.5741 39.26 28.6154Z" fill="#CC3E30"/>
</svg>
