<svg width="17" height="17" viewBox="0 0 17 17" fill="none" xmlns="http://www.w3.org/2000/svg">
<path d="M11.156 8.3402C11.1389 9.00177 10.8516 9.63075 10.3554 10.0929C9.85911 10.555 9.19329 10.8137 8.5 10.8137C7.80671 10.8137 7.14089 10.555 6.64465 10.0929C6.14841 9.63075 5.86107 9.00177 5.84395 8.3402C5.84395 8.1957 5.86014 8.05429 5.88686 7.91752H4.95833V11.2959C4.95833 11.5308 5.15748 11.7209 5.40357 11.7209H11.5964C11.7145 11.7209 11.8278 11.6761 11.9113 11.5964C11.9948 11.5167 12.0417 11.4086 12.0417 11.2959V7.91752H11.1131C11.1407 8.05429 11.156 8.1957 11.156 8.3402ZM8.5 10.0309C8.85004 10.0301 9.19199 9.93047 9.48278 9.74447C9.77356 9.55847 10.0002 9.29446 10.134 8.98573C10.2678 8.67699 10.3029 8.33734 10.2349 8.0096C10.1668 7.68185 9.99863 7.38067 9.75152 7.14402C9.54552 6.94778 9.29202 6.80304 9.01345 6.72261C8.73487 6.64219 8.43983 6.62856 8.15442 6.68292C7.86901 6.73729 7.60205 6.85798 7.37716 7.03432C7.15226 7.21065 6.97638 7.43718 6.86507 7.69387C6.75377 7.95055 6.71047 8.22948 6.73901 8.50594C6.76755 8.78241 6.86706 9.0479 7.02872 9.2789C7.19038 9.50991 7.4092 9.69931 7.66583 9.83035C7.92245 9.96138 8.20897 10.03 8.5 10.0302V10.0309ZM10.625 6.56524H11.6863C11.7569 6.56525 11.8246 6.53859 11.8746 6.4911C11.9247 6.44362 11.953 6.37915 11.9534 6.31179V5.29874C11.9534 5.23111 11.9253 5.16625 11.8752 5.11843C11.8251 5.07061 11.7571 5.04374 11.6863 5.04374H10.625C10.5541 5.04374 10.4862 5.07061 10.4361 5.11843C10.386 5.16625 10.3579 5.23111 10.3579 5.29874V6.31179C10.3583 6.37915 10.3866 6.44362 10.4367 6.4911C10.4867 6.53859 10.5544 6.56525 10.625 6.56524ZM8.5 0.226562C6.24566 0.226563 4.08365 1.08139 2.48959 2.60299C0.895533 4.12459 0 6.18833 0 8.3402C0 10.4921 0.895533 12.5558 2.48959 14.0774C4.08365 15.599 6.24566 16.4538 8.5 16.4538C10.7543 16.4538 12.9163 15.599 14.5104 14.0774C16.1045 12.5558 17 10.4921 17 8.3402C17 6.18833 16.1045 4.12459 14.5104 2.60299C12.9163 1.08139 10.7543 0.226563 8.5 0.226562ZM12.9273 11.6274C12.9273 12.1436 12.4845 12.5662 11.9437 12.5662H5.05629C4.79569 12.5654 4.54601 12.4663 4.36174 12.2904C4.17747 12.1145 4.07357 11.8761 4.07271 11.6274V5.05302C4.07271 4.53683 4.51552 4.11415 5.05629 4.11415H11.9437C12.4845 4.11415 12.9273 4.53683 12.9273 5.05302V11.6274Z" fill="white"/>
</svg>
