<svg width="130" height="118" viewBox="0 0 130 118" fill="none" xmlns="http://www.w3.org/2000/svg">
<path d="M43.3326 64.6752C39.6325 66.2811 35.5818 67.2842 31.3537 67.2842C14.0043 67.1854 0 52.1216 0 33.6408C0 15.1625 14.0043 0 31.3537 0C48.7054 0 62.7074 15.0638 62.7074 33.6408C67.1108 83.0522 15.8521 118 15.8521 118L11.8014 112.478C11.8014 112.377 45.7107 82.4493 43.3326 64.6752Z" fill="white"/>
<path d="M110.355 64.6752C106.657 66.2811 102.604 67.2842 98.3781 67.2842C81.0264 67.2842 67.0244 52.2204 67.0244 33.6408C67.0244 15.0638 81.0264 0 98.3781 0C115.728 0 129.732 15.0638 129.732 33.6408C134.135 83.0522 82.8765 118 82.8765 118L78.8259 112.478C78.8259 112.377 112.733 82.4493 110.355 64.6752Z" fill="white"/>
</svg>
