<svg xmlns="http://www.w3.org/2000/svg" width="17" height="17" fill="none"><path fill="#fff" d="M9 .72A8.28 8.28 0 0 1 17.28 9 8.28 8.28 0 0 1 9 17.28 8.28 8.28 0 0 1 .72 9 8.28 8.28 0 0 1 9 .72Zm2.856 11.655c.152-.467.866-5.124.954-6.042.027-.278-.061-.462-.233-.545-.208-.1-.516-.05-.874.08-.49.176-6.758 2.837-7.12 2.991-.344.146-.669.305-.669.536 0 .162.096.253.361.348.276.098.97.308 1.38.421.395.11.845.015 1.097-.142.267-.166 3.35-2.229 3.571-2.41.221-.18.398.052.217.233-.18.18-2.297 2.234-2.576 2.519-.339.345-.098.703.13.846.259.163 2.125 1.415 2.407 1.616.28.201.566.292.827.292.26 0 .398-.344.528-.743Z"/></svg>