<svg xmlns="http://www.w3.org/2000/svg" width="17" height="17" fill="none"><path fill="#fff" d="M8.28 0C3.714 0 0 3.714 0 8.28c0 4.566 3.714 8.28 8.28 8.28 4.566 0 8.28-3.714 8.28-8.28C16.56 3.714 12.846 0 8.28 0Zm3.59 9.913c.806.715.973.97 1 1.013.334.53-.37.594-.37.594h-1.483s-.361.004-.67-.2c-.502-.33-1.03-.969-1.4-.858-.31.093-.307.513-.307.872 0 .128-.11.186-.36.186h-.464c-.812 0-1.694-.274-2.573-1.193-1.244-1.299-2.336-3.916-2.336-3.916s-.064-.132.006-.212c.08-.09.296-.079.296-.079h1.438s.136.026.233.094c.08.056.125.163.125.163s.241.798.55 1.307c.6.993.88 1.018 1.084.911.298-.155.201-1.21.201-1.21s.013-.454-.142-.656a.778.778 0 0 0-.45-.252c-.08-.01.055-.152.227-.233.23-.103.544-.129 1.085-.124.42.004.542.03.706.067.497.114.374.416.374 1.477 0 .34-.047.818.21.976.11.068.489.152 1.163-.942.32-.52.574-1.38.574-1.38s.053-.095.135-.142c.083-.048.08-.047.195-.047.114 0 1.263-.009 1.514-.009.252 0 .488-.003.529.145.058.212-.186.938-.804 1.727-1.017 1.293-1.13 1.173-.286 1.92Z"/></svg>